<svg width="17" height="13" viewBox="0 0 17 13" fill="none" xmlns="http://www.w3.org/2000/svg">
<g clip-path="url(#clip0_1_1916)">
<rect y="0.500168" width="16.5" height="12" rx="1.5" fill="white"/>
<path fill-rule="evenodd" clip-rule="evenodd" d="M0 0.500168H7.07143V6.10017H0V0.500168Z" fill="#1A47B8"/>
<path fill-rule="evenodd" clip-rule="evenodd" d="M7.07143 0.500168V1.30017H16.5V0.500168H7.07143ZM7.07143 2.10017V2.90017H16.5V2.10017H7.07143ZM7.07143 3.70017V4.50017H16.5V3.70017H7.07143ZM7.07143 5.30017V6.10017H16.5V5.30017H7.07143ZM0 6.90017V7.70017H16.5V6.90017H0ZM0 8.50017V9.30017H16.5V8.50017H0ZM0 10.1002V10.9002H16.5V10.1002H0ZM0 11.7002V12.5002H16.5V11.7002H0Z" fill="#F93939"/>
<path fill-rule="evenodd" clip-rule="evenodd" d="M0.785706 1.30017V2.10017H1.57142V1.30017H0.785706ZM2.35713 1.30017V2.10017H3.14285V1.30017H2.35713ZM3.92856 1.30017V2.10017H4.71428V1.30017H3.92856ZM5.49999 1.30017V2.10017H6.28571V1.30017H5.49999ZM4.71428 2.10017V2.90017H5.49999V2.10017H4.71428ZM3.14285 2.10017V2.90017H3.92856V2.10017H3.14285ZM1.57142 2.10017V2.90017H2.35713V2.10017H1.57142ZM0.785706 2.90017V3.70017H1.57142V2.90017H0.785706ZM2.35713 2.90017V3.70017H3.14285V2.90017H2.35713ZM3.92856 2.90017V3.70017H4.71428V2.90017H3.92856ZM5.49999 2.90017V3.70017H6.28571V2.90017H5.49999ZM0.785706 4.50017V5.30017H1.57142V4.50017H0.785706ZM2.35713 4.50017V5.30017H3.14285V4.50017H2.35713ZM3.92856 4.50017V5.30017H4.71428V4.50017H3.92856ZM5.49999 4.50017V5.30017H6.28571V4.50017H5.49999ZM4.71428 3.70017V4.50017H5.49999V3.70017H4.71428ZM3.14285 3.70017V4.50017H3.92856V3.70017H3.14285ZM1.57142 3.70017V4.50017H2.35713V3.70017H1.57142Z" fill="white"/>
</g>
<defs>
<clipPath id="clip0_1_1916">
<rect y="0.500168" width="16.5" height="12" rx="1.5" fill="white"/>
</clipPath>
</defs>
</svg>
